<?xml version="1.0" encoding="UTF-8" standalone="no"?>
<!DOCTYPE svg PUBLIC "-//W3C//DTD SVG 1.1//EN"
 "http://www.w3.org/Graphics/SVG/1.1/DTD/svg11.dtd">
<!-- Generated by graphviz version 2.36.0 (20140111.2315)
 -->
<!-- Title: controllers_diagram Pages: 1 -->
<svg width="714pt" height="534pt"
 viewBox="0.00 0.00 714.00 533.65" xmlns="http://www.w3.org/2000/svg" xmlns:xlink="http://www.w3.org/1999/xlink">
<g id="graph0" class="graph" transform="scale(1 1) rotate(0) translate(4 529.648)">
<title>controllers_diagram</title>
<polygon fill="white" stroke="none" points="-4,4 -4,-529.648 710,-529.648 710,4 -4,4"/>
<!-- _diagram_info -->
<g id="node1" class="node"><title>_diagram_info</title>
<text text-anchor="start" x="500" y="-432.6" font-family="Times,serif" font-size="13.00">Controllers diagram</text>
<text text-anchor="start" x="500" y="-418.6" font-family="Times,serif" font-size="13.00">Date: Jun 24 2014 &#45; 15:00</text>
<text text-anchor="start" x="500" y="-404.6" font-family="Times,serif" font-size="13.00">Migration version: 20140624102515</text>
<text text-anchor="start" x="500" y="-390.6" font-family="Times,serif" font-size="13.00">Generated by RailRoady 1.1.1</text>
<text text-anchor="start" x="500" y="-376.6" font-family="Times,serif" font-size="13.00">http://railroady.prestonlee.com</text>
</g>
<!-- UsersController -->
<g id="node2" class="node"><title>UsersController</title>
<path fill="none" stroke="black" d="M17.8913,-186.439C17.8913,-186.439 96.8913,-186.439 96.8913,-186.439 102.891,-186.439 108.891,-192.439 108.891,-198.439 108.891,-198.439 108.891,-297.439 108.891,-297.439 108.891,-303.439 102.891,-309.439 96.8913,-309.439 96.8913,-309.439 17.8913,-309.439 17.8913,-309.439 11.8913,-309.439 5.89131,-303.439 5.89131,-297.439 5.89131,-297.439 5.89131,-198.439 5.89131,-198.439 5.89131,-192.439 11.8913,-186.439 17.8913,-186.439"/>
<text text-anchor="middle" x="57.3913" y="-294.239" font-family="Times,serif" font-size="14.00">UsersController</text>
<polyline fill="none" stroke="black" points="5.89131,-286.439 108.891,-286.439 "/>
<text text-anchor="start" x="13.8913" y="-271.239" font-family="Times,serif" font-size="14.00">create</text>
<text text-anchor="start" x="13.8913" y="-256.239" font-family="Times,serif" font-size="14.00">new</text>
<polyline fill="none" stroke="black" points="5.89131,-248.439 108.891,-248.439 "/>
<polyline fill="none" stroke="black" points="5.89131,-224.439 108.891,-224.439 "/>
<text text-anchor="start" x="13.8913" y="-209.239" font-family="Times,serif" font-size="14.00">_layout</text>
<text text-anchor="start" x="13.8913" y="-194.239" font-family="Times,serif" font-size="14.00">user_params</text>
</g>
<!-- CommentsController -->
<g id="node3" class="node"><title>CommentsController</title>
<path fill="none" stroke="black" d="M345.087,-191.977C345.087,-191.977 453.087,-191.977 453.087,-191.977 459.087,-191.977 465.087,-197.977 465.087,-203.977 465.087,-203.977 465.087,-287.977 465.087,-287.977 465.087,-293.977 459.087,-299.977 453.087,-299.977 453.087,-299.977 345.087,-299.977 345.087,-299.977 339.087,-299.977 333.087,-293.977 333.087,-287.977 333.087,-287.977 333.087,-203.977 333.087,-203.977 333.087,-197.977 339.087,-191.977 345.087,-191.977"/>
<text text-anchor="middle" x="399.087" y="-284.777" font-family="Times,serif" font-size="14.00">CommentsController</text>
<polyline fill="none" stroke="black" points="333.087,-276.977 465.087,-276.977 "/>
<text text-anchor="start" x="341.087" y="-261.777" font-family="Times,serif" font-size="14.00">create</text>
<text text-anchor="start" x="341.087" y="-246.777" font-family="Times,serif" font-size="14.00">destroy</text>
<polyline fill="none" stroke="black" points="333.087,-238.977 465.087,-238.977 "/>
<polyline fill="none" stroke="black" points="333.087,-214.977 465.087,-214.977 "/>
<text text-anchor="start" x="341.087" y="-199.777" font-family="Times,serif" font-size="14.00">_layout</text>
</g>
<!-- SessionsController -->
<g id="node4" class="node"><title>SessionsController</title>
<path fill="none" stroke="black" d="M180.111,-0.5C180.111,-0.5 275.111,-0.5 275.111,-0.5 281.111,-0.5 287.111,-6.5 287.111,-12.5 287.111,-12.5 287.111,-96.5 287.111,-96.5 287.111,-102.5 281.111,-108.5 275.111,-108.5 275.111,-108.5 180.111,-108.5 180.111,-108.5 174.111,-108.5 168.111,-102.5 168.111,-96.5 168.111,-96.5 168.111,-12.5 168.111,-12.5 168.111,-6.5 174.111,-0.5 180.111,-0.5"/>
<text text-anchor="middle" x="227.611" y="-93.3" font-family="Times,serif" font-size="14.00">SessionsController</text>
<polyline fill="none" stroke="black" points="168.111,-85.5 287.111,-85.5 "/>
<text text-anchor="start" x="176.111" y="-70.3" font-family="Times,serif" font-size="14.00">create</text>
<text text-anchor="start" x="176.111" y="-55.3" font-family="Times,serif" font-size="14.00">destroy</text>
<polyline fill="none" stroke="black" points="168.111,-47.5 287.111,-47.5 "/>
<polyline fill="none" stroke="black" points="168.111,-23.5 287.111,-23.5 "/>
<text text-anchor="start" x="176.111" y="-8.3" font-family="Times,serif" font-size="14.00">_layout</text>
</g>
<!-- CitiesController -->
<g id="node5" class="node"><title>CitiesController</title>
<path fill="none" stroke="black" d="M62.0153,-357.881C62.0153,-357.881 142.015,-357.881 142.015,-357.881 148.015,-357.881 154.015,-363.881 154.015,-369.881 154.015,-369.881 154.015,-483.881 154.015,-483.881 154.015,-489.881 148.015,-495.881 142.015,-495.881 142.015,-495.881 62.0153,-495.881 62.0153,-495.881 56.0153,-495.881 50.0153,-489.881 50.0153,-483.881 50.0153,-483.881 50.0153,-369.881 50.0153,-369.881 50.0153,-363.881 56.0153,-357.881 62.0153,-357.881"/>
<text text-anchor="middle" x="102.015" y="-480.681" font-family="Times,serif" font-size="14.00">CitiesController</text>
<polyline fill="none" stroke="black" points="50.0153,-472.881 154.015,-472.881 "/>
<text text-anchor="start" x="58.0153" y="-457.681" font-family="Times,serif" font-size="14.00">create</text>
<text text-anchor="start" x="58.0153" y="-442.681" font-family="Times,serif" font-size="14.00">index</text>
<text text-anchor="start" x="58.0153" y="-427.681" font-family="Times,serif" font-size="14.00">new</text>
<text text-anchor="start" x="58.0153" y="-412.681" font-family="Times,serif" font-size="14.00">show</text>
<polyline fill="none" stroke="black" points="50.0153,-404.881 154.015,-404.881 "/>
<polyline fill="none" stroke="black" points="50.0153,-380.881 154.015,-380.881 "/>
<text text-anchor="start" x="58.0153" y="-365.681" font-family="Times,serif" font-size="14.00">_layout</text>
</g>
<!-- TroublesController -->
<g id="node6" class="node"><title>TroublesController</title>
<path fill="none" stroke="black" d="M307.754,-327.148C307.754,-327.148 403.754,-327.148 403.754,-327.148 409.754,-327.148 415.754,-333.148 415.754,-339.148 415.754,-339.148 415.754,-513.148 415.754,-513.148 415.754,-519.148 409.754,-525.148 403.754,-525.148 403.754,-525.148 307.754,-525.148 307.754,-525.148 301.754,-525.148 295.754,-519.148 295.754,-513.148 295.754,-513.148 295.754,-339.148 295.754,-339.148 295.754,-333.148 301.754,-327.148 307.754,-327.148"/>
<text text-anchor="middle" x="355.754" y="-509.948" font-family="Times,serif" font-size="14.00">TroublesController</text>
<polyline fill="none" stroke="black" points="295.754,-502.148 415.754,-502.148 "/>
<text text-anchor="start" x="303.754" y="-486.948" font-family="Times,serif" font-size="14.00">create</text>
<text text-anchor="start" x="303.754" y="-471.948" font-family="Times,serif" font-size="14.00">destroy</text>
<text text-anchor="start" x="303.754" y="-456.948" font-family="Times,serif" font-size="14.00">edit</text>
<text text-anchor="start" x="303.754" y="-441.948" font-family="Times,serif" font-size="14.00">frontpage</text>
<text text-anchor="start" x="303.754" y="-426.948" font-family="Times,serif" font-size="14.00">index</text>
<text text-anchor="start" x="303.754" y="-411.948" font-family="Times,serif" font-size="14.00">new</text>
<text text-anchor="start" x="303.754" y="-396.948" font-family="Times,serif" font-size="14.00">show</text>
<text text-anchor="start" x="303.754" y="-381.948" font-family="Times,serif" font-size="14.00">update</text>
<polyline fill="none" stroke="black" points="295.754,-374.148 415.754,-374.148 "/>
<polyline fill="none" stroke="black" points="295.754,-350.148 415.754,-350.148 "/>
<text text-anchor="start" x="303.754" y="-334.948" font-family="Times,serif" font-size="14.00">_layout</text>
</g>
<!-- ApplicationController -->
<g id="node7" class="node"><title>ApplicationController</title>
<path fill="none" stroke="black" d="M172.17,-198.895C172.17,-198.895 284.17,-198.895 284.17,-198.895 290.17,-198.895 296.17,-204.895 296.17,-210.895 296.17,-210.895 296.17,-295.895 296.17,-295.895 296.17,-301.895 290.17,-307.895 284.17,-307.895 284.17,-307.895 172.17,-307.895 172.17,-307.895 166.17,-307.895 160.17,-301.895 160.17,-295.895 160.17,-295.895 160.17,-210.895 160.17,-210.895 160.17,-204.895 166.17,-198.895 172.17,-198.895"/>
<text text-anchor="middle" x="228.17" y="-292.695" font-family="Times,serif" font-size="14.00">ApplicationController</text>
<polyline fill="none" stroke="black" points="160.17,-284.895 296.17,-284.895 "/>
<polyline fill="none" stroke="black" points="160.17,-260.895 296.17,-260.895 "/>
<polyline fill="none" stroke="black" points="160.17,-236.895 296.17,-236.895 "/>
<text text-anchor="start" x="168.17" y="-221.695" font-family="Times,serif" font-size="14.00">_layout</text>
<text text-anchor="start" x="168.17" y="-206.695" font-family="Times,serif" font-size="14.00">current_user</text>
</g>
<!-- ApplicationController&#45;&gt;UsersController -->
<g id="edge1" class="edge"><title>ApplicationController&#45;&gt;UsersController</title>
<path fill="none" stroke="black" d="M159.692,-251.207C142.803,-250.667 124.994,-250.098 109.054,-249.589"/>
</g>
<!-- ApplicationController&#45;&gt;CommentsController -->
<g id="edge2" class="edge"><title>ApplicationController&#45;&gt;CommentsController</title>
<path fill="none" stroke="black" d="M296.212,-250.442C308.314,-249.916 320.903,-249.37 332.951,-248.847"/>
</g>
<!-- ApplicationController&#45;&gt;SessionsController -->
<g id="edge3" class="edge"><title>ApplicationController&#45;&gt;SessionsController</title>
<path fill="none" stroke="black" d="M228.017,-198.783C227.938,-170.722 227.842,-136.639 227.764,-108.646"/>
</g>
<!-- ApplicationController&#45;&gt;CitiesController -->
<g id="edge4" class="edge"><title>ApplicationController&#45;&gt;CitiesController</title>
<path fill="none" stroke="black" d="M188.254,-308.287C176.848,-323.972 164.27,-341.27 152.328,-357.692"/>
</g>
<!-- ApplicationController&#45;&gt;TroublesController -->
<g id="edge5" class="edge"><title>ApplicationController&#45;&gt;TroublesController</title>
<path fill="none" stroke="black" d="M268.539,-308.055C277.153,-319.719 286.429,-332.279 295.605,-344.703"/>
</g>
<!-- WelcomeController -->
<g id="node8" class="node"><title>WelcomeController</title>
<path fill="none" stroke="black" d="M12,-8.0818C12,-8.0818 113,-8.0818 113,-8.0818 119,-8.0818 125,-14.0818 125,-20.0818 125,-20.0818 125,-89.0818 125,-89.0818 125,-95.0818 119,-101.082 113,-101.082 113,-101.082 12,-101.082 12,-101.082 6,-101.082 0,-95.0818 0,-89.0818 0,-89.0818 0,-20.0818 0,-20.0818 0,-14.0818 6,-8.0818 12,-8.0818"/>
<text text-anchor="middle" x="62.5" y="-85.8818" font-family="Times,serif" font-size="14.00">WelcomeController</text>
<polyline fill="none" stroke="black" points="0,-78.0818 125,-78.0818 "/>
<text text-anchor="start" x="8" y="-62.8818" font-family="Times,serif" font-size="14.00">index</text>
<polyline fill="none" stroke="black" points="0,-55.0818 125,-55.0818 "/>
<polyline fill="none" stroke="black" points="0,-31.0818 125,-31.0818 "/>
<text text-anchor="start" x="8" y="-15.8818" font-family="Times,serif" font-size="14.00">_layout</text>
</g>
<!-- ApplicationController&#45;&gt;WelcomeController -->
<g id="edge6" class="edge"><title>ApplicationController&#45;&gt;WelcomeController</title>
<path fill="none" stroke="black" d="M182.681,-198.805C157.201,-168.227 125.757,-130.494 101.425,-101.294"/>
</g>
<!-- IdentitiesController -->
<g id="node9" class="node"><title>IdentitiesController</title>
<path fill="none" stroke="black" d="M344.566,-7.11591C344.566,-7.11591 442.566,-7.11591 442.566,-7.11591 448.566,-7.11591 454.566,-13.1159 454.566,-19.1159 454.566,-19.1159 454.566,-88.1159 454.566,-88.1159 454.566,-94.1159 448.566,-100.116 442.566,-100.116 442.566,-100.116 344.566,-100.116 344.566,-100.116 338.566,-100.116 332.566,-94.1159 332.566,-88.1159 332.566,-88.1159 332.566,-19.1159 332.566,-19.1159 332.566,-13.1159 338.566,-7.11591 344.566,-7.11591"/>
<text text-anchor="middle" x="393.566" y="-84.9159" font-family="Times,serif" font-size="14.00">IdentitiesController</text>
<polyline fill="none" stroke="black" points="332.566,-77.1159 454.566,-77.1159 "/>
<text text-anchor="start" x="340.566" y="-61.9159" font-family="Times,serif" font-size="14.00">new</text>
<polyline fill="none" stroke="black" points="332.566,-54.1159 454.566,-54.1159 "/>
<polyline fill="none" stroke="black" points="332.566,-30.1159 454.566,-30.1159 "/>
<text text-anchor="start" x="340.566" y="-14.9159" font-family="Times,serif" font-size="14.00">_layout</text>
</g>
<!-- ApplicationController&#45;&gt;IdentitiesController -->
<g id="edge7" class="edge"><title>ApplicationController&#45;&gt;IdentitiesController</title>
<path fill="none" stroke="black" d="M273.365,-198.804C298.903,-167.958 330.494,-129.8 354.88,-100.345"/>
</g>
</g>
</svg>
