<?xml version="1.0" encoding="UTF-8" standalone="no"?>
<!DOCTYPE svg PUBLIC "-//W3C//DTD SVG 1.1//EN"
 "http://www.w3.org/Graphics/SVG/1.1/DTD/svg11.dtd">
<!-- Generated by graphviz version 2.36.0 (20140111.2315)
 -->
<!-- Title: models_diagram Pages: 1 -->
<svg width="875pt" height="726pt"
 viewBox="0.00 0.00 875.27 726.00" xmlns="http://www.w3.org/2000/svg" xmlns:xlink="http://www.w3.org/1999/xlink">
<g id="graph0" class="graph" transform="scale(1 1) rotate(0) translate(4 722)">
<title>models_diagram</title>
<polygon fill="white" stroke="none" points="-4,4 -4,-722 871.274,-722 871.274,4 -4,4"/>
<!-- _diagram_info -->
<g id="node1" class="node"><title>_diagram_info</title>
<text text-anchor="start" x="8" y="-703.6" font-family="Times,serif" font-size="13.00">Models diagram</text>
<text text-anchor="start" x="8" y="-689.6" font-family="Times,serif" font-size="13.00">Date: Jun 24 2014 &#45; 15:00</text>
<text text-anchor="start" x="8" y="-675.6" font-family="Times,serif" font-size="13.00">Migration version: 20140624102515</text>
<text text-anchor="start" x="8" y="-661.6" font-family="Times,serif" font-size="13.00">Generated by RailRoady 1.1.1</text>
<text text-anchor="start" x="8" y="-647.6" font-family="Times,serif" font-size="13.00">http://railroady.prestonlee.com</text>
</g>
<!-- Identity -->
<g id="node2" class="node"><title>Identity</title>
<path fill="none" stroke="black" d="M337.5,-474.5C337.5,-474.5 458.5,-474.5 458.5,-474.5 464.5,-474.5 470.5,-480.5 470.5,-486.5 470.5,-486.5 470.5,-583.5 470.5,-583.5 470.5,-589.5 464.5,-595.5 458.5,-595.5 458.5,-595.5 337.5,-595.5 337.5,-595.5 331.5,-595.5 325.5,-589.5 325.5,-583.5 325.5,-583.5 325.5,-486.5 325.5,-486.5 325.5,-480.5 331.5,-474.5 337.5,-474.5"/>
<text text-anchor="middle" x="398" y="-580.3" font-family="Times,serif" font-size="14.00">Identity</text>
<polyline fill="none" stroke="black" points="325.5,-572.5 470.5,-572.5 "/>
<text text-anchor="start" x="333.5" y="-557.3" font-family="Times,serif" font-size="14.00">id :integer</text>
<text text-anchor="start" x="333.5" y="-542.3" font-family="Times,serif" font-size="14.00">name :string</text>
<text text-anchor="start" x="333.5" y="-527.3" font-family="Times,serif" font-size="14.00">email :string</text>
<text text-anchor="start" x="333.5" y="-512.3" font-family="Times,serif" font-size="14.00">password_digest :string</text>
<text text-anchor="start" x="333.5" y="-497.3" font-family="Times,serif" font-size="14.00">created_at :datetime</text>
<text text-anchor="start" x="333.5" y="-482.3" font-family="Times,serif" font-size="14.00">updated_at :datetime</text>
</g>
<!-- User -->
<g id="node3" class="node"><title>User</title>
<path fill="none" stroke="black" d="M500.5,-467C500.5,-467 607.5,-467 607.5,-467 613.5,-467 619.5,-473 619.5,-479 619.5,-479 619.5,-591 619.5,-591 619.5,-597 613.5,-603 607.5,-603 607.5,-603 500.5,-603 500.5,-603 494.5,-603 488.5,-597 488.5,-591 488.5,-591 488.5,-479 488.5,-479 488.5,-473 494.5,-467 500.5,-467"/>
<text text-anchor="middle" x="554" y="-587.8" font-family="Times,serif" font-size="14.00">User</text>
<polyline fill="none" stroke="black" points="488.5,-580 619.5,-580 "/>
<text text-anchor="start" x="496.5" y="-564.8" font-family="Times,serif" font-size="14.00">id :integer</text>
<text text-anchor="start" x="496.5" y="-549.8" font-family="Times,serif" font-size="14.00">provider :string</text>
<text text-anchor="start" x="496.5" y="-534.8" font-family="Times,serif" font-size="14.00">uid :string</text>
<text text-anchor="start" x="496.5" y="-519.8" font-family="Times,serif" font-size="14.00">name :string</text>
<text text-anchor="start" x="496.5" y="-504.8" font-family="Times,serif" font-size="14.00">created_at :datetime</text>
<text text-anchor="start" x="496.5" y="-489.8" font-family="Times,serif" font-size="14.00">updated_at :datetime</text>
<text text-anchor="start" x="496.5" y="-474.8" font-family="Times,serif" font-size="14.00">mod :boolean</text>
</g>
<!-- Trouble -->
<g id="node4" class="node"><title>Trouble</title>
<path fill="none" stroke="black" d="M652,-158.5C652,-158.5 796,-158.5 796,-158.5 802,-158.5 808,-164.5 808,-170.5 808,-170.5 808,-417.5 808,-417.5 808,-423.5 802,-429.5 796,-429.5 796,-429.5 652,-429.5 652,-429.5 646,-429.5 640,-423.5 640,-417.5 640,-417.5 640,-170.5 640,-170.5 640,-164.5 646,-158.5 652,-158.5"/>
<text text-anchor="middle" x="724" y="-414.3" font-family="Times,serif" font-size="14.00">Trouble</text>
<polyline fill="none" stroke="black" points="640,-406.5 808,-406.5 "/>
<text text-anchor="start" x="648" y="-391.3" font-family="Times,serif" font-size="14.00">id :integer</text>
<text text-anchor="start" x="648" y="-376.3" font-family="Times,serif" font-size="14.00">name :string</text>
<text text-anchor="start" x="648" y="-361.3" font-family="Times,serif" font-size="14.00">location :text</text>
<text text-anchor="start" x="648" y="-346.3" font-family="Times,serif" font-size="14.00">description :text</text>
<text text-anchor="start" x="648" y="-331.3" font-family="Times,serif" font-size="14.00">created_at :datetime</text>
<text text-anchor="start" x="648" y="-316.3" font-family="Times,serif" font-size="14.00">updated_at :datetime</text>
<text text-anchor="start" x="648" y="-301.3" font-family="Times,serif" font-size="14.00">latitude :text</text>
<text text-anchor="start" x="648" y="-286.3" font-family="Times,serif" font-size="14.00">longitude :text</text>
<text text-anchor="start" x="648" y="-271.3" font-family="Times,serif" font-size="14.00">gmaps :boolean</text>
<text text-anchor="start" x="648" y="-256.3" font-family="Times,serif" font-size="14.00">address :string</text>
<text text-anchor="start" x="648" y="-241.3" font-family="Times,serif" font-size="14.00">city_id :integer</text>
<text text-anchor="start" x="648" y="-226.3" font-family="Times,serif" font-size="14.00">photo_file_name :string</text>
<text text-anchor="start" x="648" y="-211.3" font-family="Times,serif" font-size="14.00">photo_content_type :string</text>
<text text-anchor="start" x="648" y="-196.3" font-family="Times,serif" font-size="14.00">photo_file_size :integer</text>
<text text-anchor="start" x="648" y="-181.3" font-family="Times,serif" font-size="14.00">photo_updated_at :datetime</text>
<text text-anchor="start" x="648" y="-166.3" font-family="Times,serif" font-size="14.00">author :string</text>
</g>
<!-- Comment -->
<g id="node5" class="node"><title>Comment</title>
<path fill="none" stroke="black" d="M726.5,-0.5C726.5,-0.5 833.5,-0.5 833.5,-0.5 839.5,-0.5 845.5,-6.5 845.5,-12.5 845.5,-12.5 845.5,-109.5 845.5,-109.5 845.5,-115.5 839.5,-121.5 833.5,-121.5 833.5,-121.5 726.5,-121.5 726.5,-121.5 720.5,-121.5 714.5,-115.5 714.5,-109.5 714.5,-109.5 714.5,-12.5 714.5,-12.5 714.5,-6.5 720.5,-0.5 726.5,-0.5"/>
<text text-anchor="middle" x="780" y="-106.3" font-family="Times,serif" font-size="14.00">Comment</text>
<polyline fill="none" stroke="black" points="714.5,-98.5 845.5,-98.5 "/>
<text text-anchor="start" x="722.5" y="-83.3" font-family="Times,serif" font-size="14.00">id :integer</text>
<text text-anchor="start" x="722.5" y="-68.3" font-family="Times,serif" font-size="14.00">commenter :string</text>
<text text-anchor="start" x="722.5" y="-53.3" font-family="Times,serif" font-size="14.00">body :text</text>
<text text-anchor="start" x="722.5" y="-38.3" font-family="Times,serif" font-size="14.00">trouble_id :integer</text>
<text text-anchor="start" x="722.5" y="-23.3" font-family="Times,serif" font-size="14.00">created_at :datetime</text>
<text text-anchor="start" x="722.5" y="-8.3" font-family="Times,serif" font-size="14.00">updated_at :datetime</text>
</g>
<!-- Trouble&#45;&gt;Comment -->
<g id="edge3" class="edge"><title>Trouble&#45;&gt;Comment</title>
<path fill="none" stroke="#0a9439" d="M758.604,-150.26C760.148,-143.888 761.665,-137.634 763.132,-131.58"/>
<ellipse fill="none" stroke="#0a9439" cx="757.599" cy="-154.405" rx="4.00001" ry="4.00001"/>
<polygon fill="#0a9439" stroke="#0a9439" points="763.196,-131.315 769.926,-122.657 764.374,-126.456 765.552,-121.597 765.552,-121.597 765.552,-121.597 764.374,-126.456 761.179,-120.537 763.196,-131.315 763.196,-131.315"/>
</g>
<!-- City -->
<g id="node6" class="node"><title>City</title>
<path fill="none" stroke="black" d="M688.5,-482C688.5,-482 795.5,-482 795.5,-482 801.5,-482 807.5,-488 807.5,-494 807.5,-494 807.5,-576 807.5,-576 807.5,-582 801.5,-588 795.5,-588 795.5,-588 688.5,-588 688.5,-588 682.5,-588 676.5,-582 676.5,-576 676.5,-576 676.5,-494 676.5,-494 676.5,-488 682.5,-482 688.5,-482"/>
<text text-anchor="middle" x="742" y="-572.8" font-family="Times,serif" font-size="14.00">City</text>
<polyline fill="none" stroke="black" points="676.5,-565 807.5,-565 "/>
<text text-anchor="start" x="684.5" y="-549.8" font-family="Times,serif" font-size="14.00">id :integer</text>
<text text-anchor="start" x="684.5" y="-534.8" font-family="Times,serif" font-size="14.00">name :string</text>
<text text-anchor="start" x="684.5" y="-519.8" font-family="Times,serif" font-size="14.00">created_at :datetime</text>
<text text-anchor="start" x="684.5" y="-504.8" font-family="Times,serif" font-size="14.00">updated_at :datetime</text>
<text text-anchor="start" x="684.5" y="-489.8" font-family="Times,serif" font-size="14.00">email :string</text>
</g>
<!-- City&#45;&gt;Trouble -->
<g id="edge6" class="edge"><title>City&#45;&gt;Trouble</title>
<path fill="none" stroke="#b598fa" d="M737.449,-473.578C736.659,-463.079 735.807,-451.767 734.929,-440.114"/>
<ellipse fill="none" stroke="#b598fa" cx="737.772" cy="-477.857" rx="4" ry="4"/>
<polygon fill="#b598fa" stroke="#b598fa" points="734.903,-439.769 738.639,-429.459 734.528,-434.783 734.152,-429.797 734.152,-429.797 734.152,-429.797 734.528,-434.783 729.665,-430.135 734.903,-439.769 734.903,-439.769"/>
</g>
<!-- OmniAuth::Identity::Models::ActiveRecord -->
<g id="node7" class="node"><title>OmniAuth::Identity::Models::ActiveRecord</title>
<ellipse fill="none" stroke="black" cx="398" cy="-679" rx="166.078" ry="18"/>
<text text-anchor="middle" x="398" y="-675.3" font-family="Times,serif" font-size="14.00">OmniAuth::Identity::Models::ActiveRecord</text>
</g>
<!-- OmniAuth::Identity::Models::ActiveRecord&#45;&gt;Identity -->
<g id="edge1" class="edge"><title>OmniAuth::Identity::Models::ActiveRecord&#45;&gt;Identity</title>
<path fill="none" stroke="black" d="M398,-660.871C398,-644.643 398,-619.306 398,-595.684"/>
</g>
<!-- ActiveRecord::Base -->
<g id="node8" class="node"><title>ActiveRecord::Base</title>
<ellipse fill="none" stroke="black" cx="703" cy="-679" rx="81.3646" ry="18"/>
<text text-anchor="middle" x="703" y="-675.3" font-family="Times,serif" font-size="14.00">ActiveRecord::Base</text>
</g>
<!-- ActiveRecord::Base&#45;&gt;User -->
<g id="edge2" class="edge"><title>ActiveRecord::Base&#45;&gt;User</title>
<path fill="none" stroke="black" d="M685.323,-661.153C668.98,-645.578 643.656,-621.444 619.591,-598.509"/>
</g>
<!-- ActiveRecord::Base&#45;&gt;Trouble -->
<g id="edge4" class="edge"><title>ActiveRecord::Base&#45;&gt;Trouble</title>
<path fill="none" stroke="black" d="M692.37,-661.143C683.884,-646.631 672.671,-624.8 668,-604 654.562,-544.157 658.335,-526.567 668,-466 669.895,-454.123 672.487,-441.951 675.523,-429.841"/>
</g>
<!-- ActiveRecord::Base&#45;&gt;Comment -->
<g id="edge5" class="edge"><title>ActiveRecord::Base&#45;&gt;Comment</title>
<path fill="none" stroke="black" d="M743.366,-663.345C769.208,-651.609 800.669,-632.366 816,-604 910.25,-429.618 851.368,-353.041 816,-158 813.824,-146.003 810.236,-133.552 806.146,-121.75"/>
</g>
<!-- ActiveRecord::Base&#45;&gt;City -->
<g id="edge7" class="edge"><title>ActiveRecord::Base&#45;&gt;City</title>
<path fill="none" stroke="black" d="M707.704,-660.871C712.648,-642.873 720.668,-613.669 727.711,-588.028"/>
</g>
</g>
</svg>
