<?xml version="1.0" encoding="UTF-8" standalone="no"?>
<!DOCTYPE svg PUBLIC "-//W3C//DTD SVG 1.1//EN"
 "http://www.w3.org/Graphics/SVG/1.1/DTD/svg11.dtd">
<!-- Generated by graphviz version 2.36.0 (20140111.2315)
 -->
<!-- Title: models_diagram Pages: 1 -->
<svg width="767pt" height="302pt"
 viewBox="0.00 0.00 767.00 302.00" xmlns="http://www.w3.org/2000/svg" xmlns:xlink="http://www.w3.org/1999/xlink">
<g id="graph0" class="graph" transform="scale(1 1) rotate(0) translate(4 298)">
<title>models_diagram</title>
<polygon fill="white" stroke="none" points="-4,4 -4,-298 763,-298 763,4 -4,4"/>
<!-- _diagram_info -->
<g id="node1" class="node"><title>_diagram_info</title>
<text text-anchor="start" x="8" y="-279.6" font-family="Times,serif" font-size="13.00">Models diagram</text>
<text text-anchor="start" x="8" y="-265.6" font-family="Times,serif" font-size="13.00">Date: Jun 24 2014 &#45; 15:00</text>
<text text-anchor="start" x="8" y="-251.6" font-family="Times,serif" font-size="13.00">Migration version: 20140624102515</text>
<text text-anchor="start" x="8" y="-237.6" font-family="Times,serif" font-size="13.00">Generated by RailRoady 1.1.1</text>
<text text-anchor="start" x="8" y="-223.6" font-family="Times,serif" font-size="13.00">http://railroady.prestonlee.com</text>
</g>
<!-- Identity -->
<g id="node2" class="node"><title>Identity</title>
<ellipse fill="none" stroke="black" cx="398" cy="-162" rx="38.0212" ry="18"/>
<text text-anchor="middle" x="398" y="-158.3" font-family="Times,serif" font-size="14.00">Identity</text>
</g>
<!-- User -->
<g id="node3" class="node"><title>User</title>
<ellipse fill="none" stroke="black" cx="581" cy="-162" rx="26.949" ry="18"/>
<text text-anchor="middle" x="581" y="-158.3" font-family="Times,serif" font-size="14.00">User</text>
</g>
<!-- Trouble -->
<g id="node4" class="node"><title>Trouble</title>
<ellipse fill="none" stroke="black" cx="680" cy="-90" rx="38.0212" ry="18"/>
<text text-anchor="middle" x="680" y="-86.3" font-family="Times,serif" font-size="14.00">Trouble</text>
</g>
<!-- Comment -->
<g id="node5" class="node"><title>Comment</title>
<ellipse fill="none" stroke="black" cx="713" cy="-18" rx="46.2191" ry="18"/>
<text text-anchor="middle" x="713" y="-14.3" font-family="Times,serif" font-size="14.00">Comment</text>
</g>
<!-- Trouble&#45;&gt;Comment -->
<g id="edge3" class="edge"><title>Trouble&#45;&gt;Comment</title>
<path fill="none" stroke="#aacb98" d="M691.449,-64.7144C694.472,-58.3016 697.746,-51.3577 700.807,-44.8648"/>
<ellipse fill="none" stroke="#aacb98" cx="689.694" cy="-68.4368" rx="4.00002" ry="4.00002"/>
<polygon fill="#aacb98" stroke="#aacb98" points="700.821,-44.8343 709.156,-37.7079 702.953,-40.3116 705.085,-35.789 705.085,-35.789 705.085,-35.789 702.953,-40.3116 701.015,-33.8701 700.821,-44.8343 700.821,-44.8343"/>
</g>
<!-- City -->
<g id="node6" class="node"><title>City</title>
<ellipse fill="none" stroke="black" cx="691" cy="-162" rx="27" ry="18"/>
<text text-anchor="middle" x="691" y="-158.3" font-family="Times,serif" font-size="14.00">City</text>
</g>
<!-- City&#45;&gt;Trouble -->
<g id="edge6" class="edge"><title>City&#45;&gt;Trouble</title>
<path fill="none" stroke="#ed3f33" d="M687.069,-135.987C686.168,-130.249 685.205,-124.121 684.289,-118.293"/>
<ellipse fill="none" stroke="#ed3f33" cx="687.716" cy="-140.103" rx="4.00001" ry="4.00001"/>
<polygon fill="#ed3f33" stroke="#ed3f33" points="684.267,-118.154 687.16,-107.577 683.491,-113.215 682.715,-108.275 682.715,-108.275 682.715,-108.275 683.491,-113.215 678.269,-108.974 684.267,-118.154 684.267,-118.154"/>
</g>
<!-- OmniAuth::Identity::Models::ActiveRecord -->
<g id="node7" class="node"><title>OmniAuth::Identity::Models::ActiveRecord</title>
<ellipse fill="none" stroke="black" cx="398" cy="-255" rx="166.078" ry="18"/>
<text text-anchor="middle" x="398" y="-251.3" font-family="Times,serif" font-size="14.00">OmniAuth::Identity::Models::ActiveRecord</text>
</g>
<!-- OmniAuth::Identity::Models::ActiveRecord&#45;&gt;Identity -->
<g id="edge1" class="edge"><title>OmniAuth::Identity::Models::ActiveRecord&#45;&gt;Identity</title>
<path fill="none" stroke="black" d="M398,-236.884C398,-220.614 398,-196.284 398,-180.04"/>
</g>
<!-- ActiveRecord::Base -->
<g id="node8" class="node"><title>ActiveRecord::Base</title>
<ellipse fill="none" stroke="black" cx="664" cy="-255" rx="81.3646" ry="18"/>
<text text-anchor="middle" x="664" y="-251.3" font-family="Times,serif" font-size="14.00">ActiveRecord::Base</text>
</g>
<!-- ActiveRecord::Base&#45;&gt;User -->
<g id="edge2" class="edge"><title>ActiveRecord::Base&#45;&gt;User</title>
<path fill="none" stroke="black" d="M648.777,-237.309C633.239,-220.274 609.354,-194.087 594.48,-177.779"/>
</g>
<!-- ActiveRecord::Base&#45;&gt;Trouble -->
<g id="edge4" class="edge"><title>ActiveRecord::Base&#45;&gt;Trouble</title>
<path fill="none" stroke="black" d="M659.49,-237.01C654.411,-215.21 647.754,-176.347 655,-144 657.891,-131.094 664.293,-117.628 669.894,-107.5"/>
</g>
<!-- ActiveRecord::Base&#45;&gt;Comment -->
<g id="edge5" class="edge"><title>ActiveRecord::Base&#45;&gt;Comment</title>
<path fill="none" stroke="black" d="M684.187,-237.558C699.197,-223.936 718.492,-203.118 727,-180 745.314,-130.236 728.956,-66.1969 719.138,-36.0854"/>
</g>
<!-- ActiveRecord::Base&#45;&gt;City -->
<g id="edge7" class="edge"><title>ActiveRecord::Base&#45;&gt;City</title>
<path fill="none" stroke="black" d="M669.078,-236.884C673.936,-220.511 681.216,-195.975 686.036,-179.732"/>
</g>
</g>
</svg>
